<svg xmlns="http://www.w3.org/2000/svg" xmlns:xlink="http://www.w3.org/1999/xlink" viewBox="0 0 160 160"><defs><style>.cls-1{fill:url(#linear-gradient);}.cls-2{fill:url(#linear-gradient-2);}</style><linearGradient id="linear-gradient" x1="52.24" y1="25.75" x2="53.85" y2="134.3" gradientUnits="userSpaceOnUse"><stop offset="0" stop-color="#46b7ea"/><stop offset="1" stop-color="#2353a3"/></linearGradient><linearGradient id="linear-gradient-2" x1="109.75" y1="40.13" x2="109.75" y2="134.13" xlink:href="#linear-gradient"/></defs><g id="图层_2" data-name="图层 2"><path class="cls-1" d="M81.76,133.89A54,54,0,0,1,102.94,33.44,43,43,0,0,0,35,65.57a34.18,34.18,0,0,0,1.9,68.31H81.76Z"/><path class="cls-2" d="M109.75,40.12a47,47,0,1,0,47,47A47,47,0,0,0,109.75,40.12ZM95.63,56.8a40.73,40.73,0,0,0-6.11,13H81.29A34,34,0,0,1,95.63,56.8ZM78.81,74.88h9.52a65,65,0,0,0-1.07,9.72H76.6A33.34,33.34,0,0,1,78.81,74.88ZM76.6,89.65H87.26a65,65,0,0,0,1.07,9.72H78.81A33.34,33.34,0,0,1,76.6,89.65Zm4.69,14.78h8.23a40.73,40.73,0,0,0,6.11,13A34,34,0,0,1,81.29,104.43Zm25.95,15.84c-5.09-1.45-9.73-7.34-12.45-15.84h12.45Zm0-20.9H93.46a58.72,58.72,0,0,1-1.17-9.72h14.95Zm0-14.77H92.29a58.72,58.72,0,0,1,1.17-9.72h13.78Zm0-14.78H94.79c2.72-8.5,7.36-14.39,12.45-15.84Zm31,0H130a40.73,40.73,0,0,0-6.11-13A33.92,33.92,0,0,1,138.2,69.82ZM112.26,54c5.09,1.45,9.73,7.34,12.45,15.84H112.26Zm0,20.9H126a58.71,58.71,0,0,1,1.18,9.72H112.26Zm0,14.77h14.95A58.71,58.71,0,0,1,126,99.37H112.26Zm0,30.62V104.43h12.45C122,112.93,117.35,118.82,112.26,120.27Zm11.61-2.82a40.73,40.73,0,0,0,6.11-13h8.22A33.87,33.87,0,0,1,123.87,117.45Zm16.82-18.08h-9.52a65,65,0,0,0,1.06-9.72H142.9A33.34,33.34,0,0,1,140.69,99.37ZM132.23,84.6a65,65,0,0,0-1.06-9.72h9.52a33.34,33.34,0,0,1,2.21,9.72Z"/></g></svg>