<svg xmlns="http://www.w3.org/2000/svg" xmlns:xlink="http://www.w3.org/1999/xlink" viewBox="0 0 739 160">
  <defs>
    <style>
      .cls-1 {
        fill: url(#linear-gradient);
      }

      .cls-2 {
        fill: url(#linear-gradient-2);
      }

      .cls-3 {
        fill: url(#linear-gradient-3);
      }
    </style>
    <linearGradient id="linear-gradient" x1="473.88" y1="54.28" x2="473.88" y2="139.55"
      gradientTransform="translate(-13 -6)" gradientUnits="userSpaceOnUse">
      <stop offset="0" stop-color="#46b7ea" />
      <stop offset="1" stop-color="#2353a3" />
    </linearGradient>
    <linearGradient id="linear-gradient-2" x1="52.49" y1="26" x2="54.1" y2="134.55"
      gradientTransform="matrix(1, 0, 0, 1, 0, 0)" xlink:href="#linear-gradient" />
    <linearGradient id="linear-gradient-3" x1="110" y1="40.38" x2="110" y2="134.38"
      gradientTransform="matrix(1, 0, 0, 1, 0, 0)" xlink:href="#linear-gradient" />
  </defs>
  <g id="图层_2" data-name="图层 2">
    <path class="cls-1"
      d="M223.94,80c-1.4,4.05-2.55,8.36-4,12.58h-.44c-1.32-4.22-2.55-8.53-4-12.58L204.5,49.51H190.07v65.12h11.7V87.44c0-6.16-1.06-15.23-1.67-21.38h.35l5.19,15.31,10.12,27.36h7.48l10-27.36,5.28-15.31h.35c-.61,6.15-1.58,15.22-1.58,21.38v27.19H249.2V49.51H234.77Zm57.91-15.84c-7.75,0-14.79,2.9-20.59,6.51l4.66,8.54c4.58-2.64,9-4.67,13.55-4.67,6.07,0,8.19,3.7,8.36,8.54-19.8,2.11-28.33,7.65-28.33,18.21,0,8.36,5.8,14.61,14.6,14.61,5.64,0,10.56-2.81,14.88-6.51h.26l1,5.28h10.56V85.85C300.77,71.6,294.34,64.12,281.85,64.12Zm6,36.78c-3.08,3.08-5.81,4.84-9.5,4.84s-6.51-1.67-6.51-5.54c0-4.4,4-7.66,16-9.24Zm50.25-36.78c-5.28,0-10.39,2.82-14.52,6.34h-.35l-.88-5.11H311.77v68.2h12.84v-15l-.35-8.1c3.79,3.44,7.92,5.37,12.23,5.37,10.83,0,20.95-9.77,20.95-26.66C357.44,74.06,350.22,64.12,338.08,64.12Zm-4.49,41.09a13.78,13.78,0,0,1-9-3.69V79.87c3.44-3.43,6.43-5.1,9.77-5.1,6.78,0,9.77,5.19,9.77,14.61C344.15,100.11,339.57,105.21,333.59,105.21Zm59.66-15.92h11.53v12.84c-1.85,1.59-5,2.47-8.18,2.47-12.76,0-19.27-8.54-19.27-22.71,0-14,7.56-22.43,18.39-22.43,5.89,0,9.59,2.37,12.76,5.45l6.95-8.27a27.41,27.41,0,0,0-20.15-8.36C377.94,48.28,364,60.86,364,82.33c0,21.74,13.46,33.53,31.24,33.53,9.06,0,16.72-3.52,21.12-7.83V78.64H393.25Zm34.94,25.34h13V49.51h-13ZM485.3,78.46l-8.54-3.6c-5.54-2.2-10.2-3.88-10.2-8.54,0-4.31,3.69-6.86,9.41-6.86,5.37,0,9.68,1.93,13.82,5.36l6.6-8.18A28.9,28.9,0,0,0,476,48.28c-13.2,0-22.52,8.18-22.52,18.83,0,9.51,6.6,14.78,13.2,17.51l8.71,3.7c5.8,2.46,9.76,4,9.76,8.8,0,4.57-3.6,7.48-10.38,7.48-5.72,0-11.88-2.91-16.54-7.22l-7.48,9a34.68,34.68,0,0,0,23.76,9.5c15,0,23.93-9.06,23.93-19.71C498.41,86.73,493.22,81.72,485.3,78.46Zm94.25,1.59v-.44c5.54-1.94,8.88-8.1,8.88-14.08,0-12.15-10.2-16-23.58-16H543.29v65.12h23.23c14.35,0,25.26-6.07,25.26-19.18C591.78,86.65,586.59,81.72,579.55,80.05ZM556.31,59.46h7.75c7.83,0,11.7,2.28,11.7,8,0,5.2-3.61,8.54-11.88,8.54h-7.57Zm9.07,45.14h-9.07V85.68h9.07c9,0,13.73,2.64,13.73,9C579.11,101.43,574.27,104.6,565.38,104.6Zm55.17-40.48c-12.32,0-23.67,9.5-23.67,26,0,16.28,11.35,25.78,23.67,25.78s23.68-9.5,23.68-25.78C644.23,73.62,632.87,64.12,620.55,64.12Zm0,41.18c-6.68,0-10.47-6-10.47-15.22s3.79-15.4,10.47-15.4S631,80.75,631,90.08,627.24,105.3,620.55,105.3Zm52.89-41.18c-12.32,0-23.67,9.5-23.67,26,0,16.28,11.35,25.78,23.67,25.78s23.67-9.5,23.67-25.78C697.11,73.62,685.76,64.12,673.44,64.12Zm0,41.18c-6.69,0-10.47-6-10.47-15.22s3.78-15.4,10.47-15.4,10.47,6.07,10.47,15.4S680.13,105.3,673.44,105.3Zm56.14-.7a14.31,14.31,0,0,1-4.84,1.05c-4.4,0-6.68-2.64-6.68-8.27V75.56H730.2V65.35H718.06V52.15H707.23l-1.49,13.2-7.57.62v9.59h7V97.38c0,11.09,4.49,18.48,16.19,18.48A31.89,31.89,0,0,0,731.7,114Z" />
    <path class="cls-2" d="M82,134.14A54,54,0,0,1,103.19,33.69a43,43,0,0,0-68,32.13,34.18,34.18,0,0,0,1.9,68.31H82Z" />
    <path class="cls-3"
      d="M110,40.38a47,47,0,1,0,47,47A47,47,0,0,0,110,40.38ZM95.88,57.05a40.73,40.73,0,0,0-6.11,13H81.54A34,34,0,0,1,95.88,57.05ZM79.06,75.13h9.52a65,65,0,0,0-1.07,9.72H76.85A33.34,33.34,0,0,1,79.06,75.13ZM76.85,89.9H87.51a65,65,0,0,0,1.07,9.72H79.06A33.34,33.34,0,0,1,76.85,89.9Zm4.69,14.78h8.23a40.73,40.73,0,0,0,6.11,13A34,34,0,0,1,81.54,104.68Zm25.95,15.84c-5.09-1.45-9.73-7.34-12.45-15.84h12.45Zm0-20.9H93.71a58.72,58.72,0,0,1-1.17-9.72h14.95Zm0-14.77H92.54a58.72,58.72,0,0,1,1.17-9.72h13.78Zm0-14.78H95c2.72-8.5,7.36-14.39,12.45-15.84Zm31,0h-8.22a40.73,40.73,0,0,0-6.11-13A33.92,33.92,0,0,1,138.45,70.07ZM112.51,54.23c5.09,1.45,9.73,7.34,12.45,15.84H112.51Zm0,20.9h13.77a58.71,58.71,0,0,1,1.18,9.72H112.51Zm0,14.77h14.95a58.71,58.71,0,0,1-1.18,9.72H112.51Zm0,30.62V104.68H125C122.24,113.18,117.6,119.07,112.51,120.52Zm11.61-2.82a40.73,40.73,0,0,0,6.11-13h8.22A33.87,33.87,0,0,1,124.12,117.7Zm16.82-18.08h-9.52a65,65,0,0,0,1.06-9.72h10.67A33.34,33.34,0,0,1,140.94,99.62Zm-8.46-14.77a65,65,0,0,0-1.06-9.72h9.52a33.34,33.34,0,0,1,2.21,9.72Z" />
  </g>
</svg>