<svg xmlns="http://www.w3.org/2000/svg" xmlns:xlink="http://www.w3.org/1999/xlink" viewBox="0 0 562 160">
  <defs>
    <style>
      .cls-1 {
        fill: url(#linear-gradient);
      }
    </style>
    <linearGradient id="linear-gradient" x1="296.88" y1="54.28" x2="296.88" y2="139.55"
      gradientTransform="translate(-13 -6)" gradientUnits="userSpaceOnUse">
      <stop offset="0" stop-color="#46b7ea" />
      <stop offset="1" stop-color="#2353a3" />
    </linearGradient>
  </defs>
  <g id="图层_2" data-name="图层 2">
    <path class="cls-1"
      d="M46.94,80c-1.4,4.05-2.55,8.36-4,12.58h-.44C41.22,88.32,40,84,38.58,80L27.5,49.51H13.07v65.12h11.7V87.44c0-6.16-1.06-15.23-1.67-21.38h.35l5.19,15.31,10.12,27.36h7.48l10-27.36,5.28-15.31h.35c-.61,6.15-1.58,15.22-1.58,21.38v27.19H72.2V49.51H57.77Zm57.91-15.84c-7.75,0-14.79,2.9-20.59,6.51l4.66,8.54c4.58-2.64,9-4.67,13.55-4.67,6.07,0,8.19,3.7,8.36,8.54C91,85.15,82.5,90.69,82.5,101.25c0,8.36,5.8,14.61,14.6,14.61,5.64,0,10.56-2.81,14.88-6.51h.26l1,5.28h10.56V85.85C123.77,71.6,117.34,64.12,104.85,64.12Zm6,36.78c-3.08,3.08-5.81,4.84-9.5,4.84s-6.51-1.67-6.51-5.54c0-4.4,4-7.66,16-9.24Zm50.25-36.78c-5.28,0-10.39,2.82-14.52,6.34h-.35l-.88-5.11H134.77v68.2h12.84v-15l-.35-8.1c3.79,3.44,7.92,5.37,12.23,5.37,10.83,0,20.95-9.77,20.95-26.66C180.44,74.06,173.22,64.12,161.08,64.12Zm-4.49,41.09a13.78,13.78,0,0,1-9-3.69V79.87c3.44-3.43,6.43-5.1,9.77-5.1,6.78,0,9.77,5.19,9.77,14.61C167.15,100.11,162.57,105.21,156.59,105.21Zm59.66-15.92h11.53v12.84c-1.85,1.59-5,2.47-8.18,2.47-12.76,0-19.27-8.54-19.27-22.71,0-14,7.56-22.43,18.39-22.43,5.89,0,9.59,2.37,12.76,5.45l7-8.27a27.41,27.41,0,0,0-20.15-8.36C200.94,48.28,187,60.86,187,82.33c0,21.74,13.46,33.53,31.24,33.53,9.06,0,16.72-3.52,21.12-7.83V78.64H216.25Zm34.94,25.34h13V49.51h-13ZM308.3,78.46l-8.54-3.6c-5.54-2.2-10.2-3.88-10.2-8.54,0-4.31,3.69-6.86,9.41-6.86,5.37,0,9.68,1.93,13.82,5.36l6.6-8.18A28.9,28.9,0,0,0,299,48.28c-13.2,0-22.52,8.18-22.52,18.83,0,9.51,6.6,14.78,13.2,17.51l8.71,3.7c5.8,2.46,9.76,4,9.76,8.8,0,4.57-3.6,7.48-10.38,7.48-5.72,0-11.88-2.91-16.54-7.22l-7.48,9a34.68,34.68,0,0,0,23.76,9.5c15,0,23.93-9.06,23.93-19.71C321.41,86.73,316.22,81.72,308.3,78.46Zm94.25,1.59v-.44c5.54-1.94,8.88-8.1,8.88-14.08,0-12.15-10.2-16-23.58-16H366.29v65.12h23.23c14.35,0,25.26-6.07,25.26-19.18C414.78,86.65,409.59,81.72,402.55,80.05ZM379.31,59.46h7.75c7.83,0,11.7,2.28,11.7,8,0,5.2-3.61,8.54-11.88,8.54h-7.57Zm9.07,45.14h-9.07V85.68h9.07c9,0,13.73,2.64,13.73,9C402.11,101.43,397.27,104.6,388.38,104.6Zm55.17-40.48c-12.32,0-23.67,9.5-23.67,26,0,16.28,11.35,25.78,23.67,25.78s23.68-9.5,23.68-25.78C467.23,73.62,455.87,64.12,443.55,64.12Zm0,41.18c-6.68,0-10.47-6-10.47-15.22s3.79-15.4,10.47-15.4S454,80.75,454,90.08,450.24,105.3,443.55,105.3Zm52.89-41.18c-12.32,0-23.67,9.5-23.67,26,0,16.28,11.35,25.78,23.67,25.78s23.67-9.5,23.67-25.78C520.11,73.62,508.76,64.12,496.44,64.12Zm0,41.18c-6.69,0-10.47-6-10.47-15.22s3.78-15.4,10.47-15.4,10.47,6.07,10.47,15.4S503.13,105.3,496.44,105.3Zm56.14-.7a14.31,14.31,0,0,1-4.84,1.05c-4.4,0-6.68-2.64-6.68-8.27V75.56H553.2V65.35H541.06V52.15H530.23l-1.49,13.2-7.57.62v9.59h7V97.38c0,11.09,4.49,18.48,16.19,18.48A31.89,31.89,0,0,0,554.7,114Z" />
  </g>
</svg>