<svg xmlns="http://www.w3.org/2000/svg" viewBox="0 0 336.82 167.83" class="logo">
  <path class="cls-1"
    d="M87.39 164.67c-17.68 1.31-38.31 1-54.18-7.87-12.59-7-23.71-18.52-28.72-32.14A82 82 0 0 1 0 97.17c0-36.26 16.11-64.23 40.29-80.34C56.88 5.45 76.29 0 98.83 0c17.3 0 30.34 4 35.08 6.64l-9.48 27.73c-4.5-2.38-15.17-5.22-28.92-5.22s-26.78 4.27-36.5 12.33c-13.27 11.13-22 29.39-22 51.66 0 25.6 14.46 42.67 42.43 42.67a161.48 161.48 0 0 0 22.38-1.19zm105.05-71.1l-2.72-30.4c-.71-8.76-1.42-21.56-2.14-31.28h-.71c-4 9.72-8.53 22-12.8 31.28l-13.69 30.08-13.53 33.43-17.33 38.41h-36.5l78-159.75h43.85l18.49 159.75h-35.82l-3.05-38.12zm41.54 40.1c12.27 3.81 21.29 5.19 36.22 5.19 13 0 20.87-6.71 20.87-19 0-9.24-6.87-14.93-21.57-22.75-16.82-9-32.94-21.8-32.94-42.42 0-32.24 28-51.91 62.81-51.91 19.19 0 30.57 4.27 37.44 7.82l-10.66 28.44a62.94 62.94 0 0 0-29.63-6.87c-15.88 0-24.17 7.82-24.17 16.59 0 9.48 9.72 15.17 23.23 22.75 19.43 10.19 31.52 23.23 31.52 42.43 0 35.55-29.44 55.72-64.71 53.8a231.52 231.52 0 0 1-24.78-2.61z"
    data-name="Layer 2" />
  <path class="cls-2"
    d="M127.12 127.06a41.64 41.64 0 0 1 13.11-.32 39.17 39.17 0 0 1 16.89 6.2c10.55-15 29.11-25 50.24-25 19.75 0 37.34 8.85 48.16 22.28l1-.77c-12.85-17.31-37.44-29-65.67-29-26.92 0-50.54 10.65-63.81 26.65z" />
</svg>