<svg class="icon" viewBox="0 0 1024 1024" xmlns="http://www.w3.org/2000/svg" width="200" height="200"><defs><style>@font-face{font-family:feedback-iconfont;src:url(//at.alicdn.com/t/font_1031158_u69w8yhxdu.woff2?t=1630033759944) format(&quot;woff2&quot;),url(//at.alicdn.com/t/font_1031158_u69w8yhxdu.woff?t=1630033759944) format(&quot;woff&quot;),url(//at.alicdn.com/t/font_1031158_u69w8yhxdu.ttf?t=1630033759944) format(&quot;truetype&quot;)}</style></defs><path d="M512 1024C230.4 1024 0 793.6 0 512S230.4 0 512 0s512 230.4 512 512-230.4 512-512 512zm259.2-569.6H480c-12.8 0-25.6 12.8-25.6 25.6v64c0 12.8 12.8 25.6 25.6 25.6h176c12.8 0 25.6 12.8 25.6 25.6V608c0 41.6-35.2 76.8-76.8 76.8h-240c-12.8 0-25.6-12.8-25.6-25.6V416c0-41.6 35.2-76.8 76.8-76.8h355.2c12.8 0 25.6-12.8 25.6-25.6v-64c0-12.8-12.8-25.6-25.6-25.6H416c-105.6 0-188.8 86.4-188.8 188.8V768c0 12.8 12.8 25.6 25.6 25.6h374.4c92.8 0 169.6-76.8 169.6-169.6V480c0-12.8-12.8-25.6-25.6-25.6z"/></svg>