<svg class="icon" viewBox="0 0 1024 1024" xmlns="http://www.w3.org/2000/svg" width="200" height="200"><path d="M202.8 914.9h-129v-232c0-16.2-13.1-29.4-29.4-29.4h-1.8c-16.2 0-29.4 13.2-29.4 29.4v261.4c0 16.2 13.2 29.4 29.4 29.4h160.2c16.2 0 29.4-13.2 29.4-29.4s-13.2-29.4-29.4-29.4zm265.4-218.3c-26.2-28.7-64.1-43.1-114.7-43.1h-84.4c-16.2 0-29.4 13.2-29.4 29.4v261.4c0 16.2 13.2 29.4 29.4 29.4h84.4c50.6 0 88.6-14.4 114.7-43.1 24.9-27.3 37.5-66.3 37.5-117 0-51.1-12.7-90.1-37.5-117zm-43.6 194c-17.4 17.1-49.6 24.7-76.7 24.7h-47.3v-205h47.3c34.5 0 60.8 8 76.7 24.3 15.5 15.9 23.3 35.5 23.3 71.4 0 44.4-9.4 71-23.3 84.6zm236.6-217.9c-4.3-11.5-15.3-19.2-27.6-19.2h-17.1c-12.2 0-23.2 7.6-27.5 19.2l-97.2 261.4c-7.2 19.2 7.1 39.7 27.6 39.7h2.4c12.5 0 23.6-7.9 27.7-19.6l21.4-60.7h109.4l21.4 60.7c4.2 11.8 15.3 19.6 27.7 19.6h1.4c20.5 0 34.7-20.5 27.6-39.7l-97.2-261.4zm-72.1 169.5l35.3-100.6h1.3l35 100.6h-71.6zm310.7-188.7h-99.7c-16.2 0-29.4 13.2-29.4 29.4v261.4c0 16.2 13.2 29.4 29.4 29.4h2.2c16.2 0 29.4-13.2 29.4-29.4v-93.5h67.2c75.9 0 113.9-33.2 113.9-99.1 0-65.5-38-98.2-113-98.2zm45.8 131.9c-10.5 8.1-27 12.6-49.7 12.6h-64.2v-90.6h64.2c22.2 0 38.8 4 49.3 12.6 10.5 8.1 16.1 17.9 16.1 31.8 0 16.7-5.2 25.1-15.7 33.6zm-130-207.9c0-56-45.5-101.5-101.5-101.5H311.9c-56 0-101.5 45.5-101.5 101.5 0 17.7 14.3 32 32 32s32-14.3 32-32c0-20.7 16.8-37.5 37.5-37.5h402.2c20.7 0 37.5 16.8 37.5 37.5 0 17.7 14.3 32 32 32s32-14.4 32-32zM513 431c101.2 0 183.5-82.3 183.5-183.5S614.2 64 513 64s-183.5 82.3-183.5 183.5S411.8 431 513 431zm0-303c65.9 0 119.5 53.6 119.5 119.5S578.9 367 513 367s-119.5-53.6-119.5-119.5S447.1 128 513 128z"/></svg>