<svg class="icon" viewBox="0 0 2044 1024" xmlns="http://www.w3.org/2000/svg" width="399.219" height="200"><defs><style>@font-face{font-family:feedback-iconfont;src:url(//at.alicdn.com/t/font_1031158_u69w8yhxdu.woff2?t=1630033759944) format(&quot;woff2&quot;),url(//at.alicdn.com/t/font_1031158_u69w8yhxdu.woff?t=1630033759944) format(&quot;woff&quot;),url(//at.alicdn.com/t/font_1031158_u69w8yhxdu.ttf?t=1630033759944) format(&quot;truetype&quot;)}</style></defs><path d="M498.387 985.698c-248.27 0-450.163-201.893-450.163-450.163S250.116 85.372 498.387 85.372c118.597-.23 232.35 46.377 316.567 130.134l.462.462 121.366 121.366-125.75 125.75-121.366-121.366c-107.061-105.677-279.42-104.523-385.096 2.538s-104.523 279.42 2.538 384.865c106.6 105.215 278.035 104.523 383.711-1.384L815.185 603.37l125.75 125.75L816.8 853.718c-84.448 84.68-198.893 132.21-318.413 131.98z"/><path d="M1519.387 985.698c-118.367.23-232.119-46.378-316.106-129.673l-.923-.923L885.79 534.151l315.414-317.03c84.218-84.68 198.893-132.21 318.414-131.75 248.27 0 450.163 201.894 450.163 450.164s-202.123 450.163-450.394 450.163zM1328.8 729.813c107.292 105.446 279.65 103.831 385.096-3.691 105.446-107.292 103.83-279.65-3.691-385.096-106.6-104.523-277.574-103.83-383.25 1.846l-190.587 191.74L1328.8 729.813z"/></svg>