<svg class="icon" viewBox="0 0 1024 1024" xmlns="http://www.w3.org/2000/svg" width="200" height="200"><defs><style>@font-face{font-family:feedback-iconfont;src:url(//at.alicdn.com/t/font_1031158_u69w8yhxdu.woff2?t=1630033759944) format(&quot;woff2&quot;),url(//at.alicdn.com/t/font_1031158_u69w8yhxdu.woff?t=1630033759944) format(&quot;woff&quot;),url(//at.alicdn.com/t/font_1031158_u69w8yhxdu.ttf?t=1630033759944) format(&quot;truetype&quot;)}</style></defs><path d="M915.062 933.888A87.119 87.119 0 0 1 850 961.93c-14.809 0-27.49-2.757-38.046-8.27a78.77 78.77 0 0 1-26.703-22.371 208.58 208.58 0 0 1-23.158-43.481 2549.051 2549.051 0 0 1-21.267-51.673l-44.426-121.068H318.07l-44.426 123.668c-17.329 48.364-32.138 80.896-44.426 97.831-12.288 16.857-32.295 25.364-60.337 25.364-23.63 0-44.583-9.059-62.779-27.018-18.274-18.038-27.333-38.36-27.333-61.204 0-13.233 2.127-26.781 6.302-40.88 4.253-14.022 11.264-33.557 21.031-58.526l238.04-626.688 24.42-64.828c9.452-25.206 19.692-46.158 30.483-62.857C409.836 3.309 424.88 1.182 445.046 0h130.757c20.165.788 28.2 3.072 39.07 19.298a286.163 286.163 0 0 1 27.254 52.303c7.404 18.669 16.856 43.56 28.278 74.752l243.082 622.671c19.062 47.42 28.593 81.92 28.593 103.345 0 22.37-8.98 42.93-27.018 61.519z"/></svg>