<svg class="icon" viewBox="0 0 1024 1024" xmlns="http://www.w3.org/2000/svg" width="200" height="200"><path d="M376.747 853.333a128.043 128.043 0 1 1 0-85.333h369.92a106.667 106.667 0 1 0 0-213.333H277.333a192 192 0 1 1 0-384h131.67l-55.168-55.168 60.33-60.331 158.166 158.165L414.165 371.5l-60.33-60.331L409.003 256h-131.67a106.667 106.667 0 0 0 0 213.333h469.334a192 192 0 1 1 0 384h-369.92zM256 768a42.667 42.667 0 1 0 0 85.333A42.667 42.667 0 0 0 256 768zM768 85.333a128 128 0 1 1 0 256 128 128 0 0 1 0-256zm0 85.334A42.667 42.667 0 1 0 768 256a42.667 42.667 0 0 0 0-85.333z"/></svg>