<svg class="icon" viewBox="0 0 1024 1024" xmlns="http://www.w3.org/2000/svg" width="200" height="200"><defs><style>@font-face{font-family:feedback-iconfont;src:url(//at.alicdn.com/t/font_1031158_u69w8yhxdu.woff2?t=1630033759944) format(&quot;woff2&quot;),url(//at.alicdn.com/t/font_1031158_u69w8yhxdu.woff?t=1630033759944) format(&quot;woff&quot;),url(//at.alicdn.com/t/font_1031158_u69w8yhxdu.ttf?t=1630033759944) format(&quot;truetype&quot;)}</style></defs><path d="M512 320l352 160v258.24c0 72.704-74.08 139.2-140 171.712l-212 104.576V864l224-96V640l-224-96v-64l224 64v-64l-224-64v-96zm0 288l160 64v64l-160 64V608zm0-570.688L604.64 64l-.032 112 148.224 64v-80L864 224v192L512 256V37.312zM512 320v96l-224 85.184V672l224-64v192l-224-64v64l224 64v150.528L300 909.952c-65.92-32.512-140-99.008-140-171.712V480l352-160zm0 160v64l-160 64v-64l160-64zm0-442.688V256L160 416V224l111.168-64v80l148.224-64V64L512 37.312z"/></svg>